# xmcd
#
# Track frame offsets:
#	150
#	11190
#	19025
#	31735
#	44920
#	57307
#	71325
#	81662
#	91700
#	102155
#	114497
#	123085
#	133197
#	143417
#	153530
#	163560
#	176112
#	189047
#	200222
#	210195
#
# Disc length: 2984 seconds
#
# Revision: 1
# Processed by: cddbd v1.5.1PL0 Copyright (c) Steve Scherf et al.
# Submitted via: EasyCDDAExtractor 7.0.6.1
#
DISCID=0e0ba614
DTITLE=Hank Williams - We Remember Hank Williams Disc 1
DYEAR=1900
DGENRE=Country
TTITLE0=Countryfied
TTITLE1=Nobody's Lonesome For Me
TTITLE2=On The Banks Of The Old Ponchartrain
TTITLE3=I Can't Escape From You
TTITLE4=Half As Much
TTITLE5=Hey Good Lookin'
TTITLE6=Baby We're Realy In Love
TTITLE7=Help Me Understand
TTITLE8=I Saw The Light
TTITLE9=A Mansion On The Hill
TTITLE10=Teardrop On A Rose
TTITLE11=Moanin' The Blues
TTITLE12=Honky Tonkin'
TTITLE13=Ready To Go Home
TTITLE14=Lonesome Whistle
TTITLE15=I Heard You Crying In Your Sleep
TTITLE16=There's A Tear in my Bear
TTITLE17=Jambalaya
TTITLE18=I Just Don't Like This Kind Of Livin'
TTITLE19=Be Careful Of Stones That You Through
EXTD=
EXTT0=
EXTT1=
EXTT2=
EXTT3=
EXTT4=
EXTT5=
EXTT6=
EXTT7=
EXTT8=
EXTT9=
EXTT10=
EXTT11=
EXTT12=
EXTT13=
EXTT14=
EXTT15=
EXTT16=
EXTT17=
EXTT18=
EXTT19=
PLAYORDER=
